/* XPM */
static char *lock[] = {
/* columns rows colors chars-per-pixel */
"48 48 59 1 ",
"  c black",
". c #020202",
"X c gray1",
"o c #040404",
"O c gray2",
"+ c #070707",
"@ c gray3",
"# c #0C0C0C",
"$ c gray7",
"% c #131313",
"& c gray9",
"* c #181818",
"= c #1B1B1B",
"- c #1D1D1D",
"; c #202020",
": c #232323",
"> c gray14",
", c #272727",
"< c gray16",
"1 c #2C2C2C",
"2 c #2D2D2D",
"3 c gray19",
"4 c #313131",
"5 c #343434",
"6 c #353535",
"7 c gray22",
"8 c #4C4C4C",
"9 c #535353",
"0 c #868686",
"q c #888888",
"w c gray60",
"e c gray62",
"r c #9F9F9F",
"t c #A4A4A4",
"y c #AFAFAF",
"u c gray70",
"i c #B7B7B7",
"p c gray73",
"a c gray",
"s c #C1C1C1",
"d c #C5C5C5",
"f c gray79",
"g c gray80",
"h c #D0D0D0",
"j c gray82",
"k c LightGray",
"l c #D7D7D7",
"z c #DADADA",
"x c gray87",
"c c #E1E1E1",
"v c #E2E2E2",
"b c gray89",
"n c gray90",
"m c #E6E6E6",
"M c #E9E9E9",
"N c #EAEAEA",
"B c #ECECEC",
"V c #F6F6F6",
"C c None",
/* pixels */
"CCCCCCCCCCCCCCCCCCCCCCCCCCCCCCCCCCCCCCCCCCCCCCCC",
"CCCCCCCCCCCCCCCCCCCCCCCCCCCCCCCCCCCCCCCCCCCCCCCC",
"CCCCCCCCCCCCCCCCCCCCCCCCCCCCCCCCCCCCCCCCCCCCCCCC",
"CCCCCCXXXXXXXXXXXXXXXXXXXXXXXXXXXXXXXXXXXXCCCCCC",
"CCCCXXXXXXXXXXXXXXXXXXXXXXXXXXXXXXXXXXXXXXXXCCCC",
"CCCXXXXXXXXXXXXXXXXXXXXXXXXXXXXXXXXXXXXXXXXXXCCC",
"CCCXXXXXXXXXXXXXXXXXXXXXXXXXXXXXXXXXXXXXXXXXXCCC",
"CCCXXXXXXXXXXXXXXXXXXXXXXXXXXXXXXXXXXXXXXXXXXCCC",
"CCCXXXXXXXXXXXXXXXXXXXXXXXXXXXXXXXXXXXXXXXXXXCCC",
"CCCXXXXXXXXXXXXXXXXXXXXXXXXXXXXXXXXXXXXXXXXXXCCC",
"CCCXXXXXXXXXXXXXXXXXXXXXXXXXXXXXXXXXXXXXXXXXXCCC",
"CCCXXXXXXXXXXXXXXXXXXXXXXXXXXXXXXXXXXXXXXXXXXCCC",
"CCCXXXXXXXXXXXXXXXXXXXXXXXXXXXXXXXXXXXXXXXXXXCCC",
"CCCXXXXXXXXXXXXXXXXXXXXXXXXXXXXXXXXXXXXXXXXXXCCC",
"CCCXXXXXXXXXXXXXXXX0bVVVVVVb0XXXXXXXXXXXXXXXXCCC",
"CCCXXXXXXXXXXXXXXXXgNbzzzlbNjXXXXXXXXXXXXXXXXCCC",
"CCCXXXXXXXXXXXXXXXXmm8XXXX8mNXXXXXXXXXXXXXXXXCCC",
"CCCXXXXXXXXXXXXXXXXmbXXXXXXmmXXXXXXXXXXXXXXXXCCC",
"CCCXXXXXXXXXXXXXXXXxbXXXXXXbxXXXXXXXXXXXXXXXXCCC",
"CCCXXXXXXXXXXXXXXXXxzXXXXXXzxXXXXXXXXXXXXXXXXCCC",
"CCCXXXXXXXXXXXXXXXXzzXXXXXXzzXXXXXXXXXXXXXXXXCCC",
"CCCXXXXXXXXXXXXXexmzlmmmbmmllmbwXXXXXXXXXXXXXCCC",
"CCCXXXXXXXXXXXXXgjljjjlljjjlljjjXXXXXXXXXXXXXCCC",
"CCCXXXXXXXXXXXXXjjgjgjgjjjjjgjjgXXXXXXXXXXXXXCCC",
"CCCXXXXXXXXXXXXXggggggggggggggggXXXXXXXXXXXXXCCC",
"CCCXXXXXXXXXXXXXffffffffffffffffXXXXXXXXXXXXXCCC",
"CCCXXXXXXXXXXXXXddddddddddddddddXXXXXXXXXXXXXCCC",
"CCCXXXXXXXXXXXXXssssssssssssssssXXXXXXXXXXXXXCCC",
"CCCXXXXXXXXXXXXXaaaaaaaaaaaaaaaaXXXXXXXXXXXXXCCC",
"CCCXXXXXXXXXXXXXppppppppppppppppXXXXXXXXXXXXXCCC",
"CCCXXXXXXXXXXXXXiiiiiiiiiiiiiiiiXXXXXXXXXXXXXCCC",
"CCCXXXXXXXXXXXXXuuuuuuuuuuuuuuuuXXXXXXXXXXXXXCCC",
"CCCXXXXXXXXXXXXXtyyyyyyyyyyyyyytXXXXXXXXXXXXXCCC",
"CCCXXXXXXXXXXXXX9weeeeeeeeeeeew9XXXXXXXXXXXXXCCC",
"CCCXXXXXXXXXXXXXXXXXXXXXXXXXXXXXXXXXXXXXXXXXXCCC",
"CCCXXXXXXXXXXXXXXXXXXXXXXXXXXXXXXXXXXXXXXXXXXCCC",
"CCCXXXXXXXXXXXXXXXXXXXXXXXXXXXXXXXXXXXXXXXXXXCCC",
"CCCXXXXXXXXXXXXXXXXXXXXXXXXXXXXXXXXXXXXXXXXXXCCC",
"CCCXXXXXXXXXXXXXXXXXXXXXXXXXXXXXXXXXXXXXXXXXXCCC",
"CCCXXXXXXXXXXXXXXXXXXXXXXXXXXXXXXXXXXXXXXXXXXCCC",
"CCCoXXXXXXXXXXXXXXXXXXXXXXXXXXXXXXXXXXXXXXXXXCCC",
"CCCoXXXXXXXXXXXXXXXXXXXXXXXXXXXXXXXXXXXXXXXXXCCC",
"CCCoXXXXXXXXXXXXXXXXXXXXXXXXXXXXXXXXXXXXXXXXoCCC",
"CCCXoXXXXXXXXXXXXXXXXXXXXXXXXXXXXXXXXXXXXXXooCCC",
"CCCXo#$$&&==-;;<,<2244666444222,,;;;==&&$$#oXCCC",
"CCCCCXXXXXXXXXXXXXXXXXXXXXXXXXXXXXXXXXXXXXXCCCCC",
"CCCCCCCCCCCCCCCCCCCCCCCCCCCCCCCCCCCCCCCCCCCCCCCC",
"CCCCCCCCCCCCCCCCCCCCCCCCCCCCCCCCCCCCCCCCCCCCCCCC"
};
